#tb 0: 1/44100
#media_type 0: audio
#codec_id 0: pcm_s16le
#sample_rate 0: 44100
#channel_layout_name 0: 4 channels
0,          0,          0,     4096,    32768, 0x18efb698
0,       4096,       4096,     4096,    32768, 0xcb9ef4b2
0,       8192,       8192,     4096,    32768, 0x4da2b94d
0,      12288,      12288,     4096,    32768, 0xe673d0a1
0,      16384,      16384,     4096,    32768, 0xe640ca0c
0,      20480,      20480,     4096,    32768, 0xd6ae070f
0,      24576,      24576,     4096,    32768, 0xe1ddd841
0,      28672,      28672,     4096,    32768, 0x4174dce9
0,      32768,      32768,     4096,    32768, 0x91ebbbc8
0,      36864,      36864,     4096,    32768, 0xd2bff0e1
0,      40960,      40960,     4096,    32768, 0xf027f45c
0,      45056,      45056,     4096,    32768, 0xaa61c310
0,      49152,      49152,     4096,    32768, 0x01a7f81c
0,      53248,      53248,     4096,    32768, 0x4c74e889
0,      57344,      57344,     4096,    32768, 0xf60ed269
0,      61440,      61440,     4096,    32768, 0x45fc002a
0,      65536,      65536,     4096,    32768, 0x6e24caad
0,      69632,      69632,     4096,    32768, 0xf941e035
0,      73728,      73728,     4096,    32768, 0xf027f45c
0,      77824,      77824,     4096,    32768, 0xaa61c310
